<?xml version="1.0" standalone="no"?>
<!DOCTYPE svg PUBLIC "-//W3C//DTD SVG 20010904//EN"
 "http://www.w3.org/TR/2001/REC-SVG-20010904/DTD/svg10.dtd">
<svg version="1.0" xmlns="http://www.w3.org/2000/svg"
 width="378.000000pt" height="320.000000pt" viewBox="0 0 378.000000 320.000000"
 preserveAspectRatio="xMidYMid meet">

<g transform="translate(0.000000,320.000000) scale(0.100000,-0.100000)"
fill="#000000" stroke="none">
<path d="M3206 3185 c-137 -35 -290 -149 -375 -279 -54 -82 -107 -213 -120
-296 -6 -36 -11 -103 -11 -150 0 -84 0 -85 -31 -103 -17 -9 -33 -26 -36 -36
-5 -19 -66 -54 -116 -66 -37 -10 -60 -40 -55 -70 5 -22 0 -29 -33 -45 -55 -29
-74 -25 -115 20 -38 42 -54 50 -54 25 0 -34 -88 -28 -162 11 -15 8 -62 15
-107 17 -59 1 -82 6 -86 16 -9 22 15 40 79 56 91 24 93 26 53 66 -50 50 -127
155 -127 173 0 9 -15 23 -32 32 -18 9 -53 32 -77 51 -32 24 -54 33 -83 33 -77
0 -176 -74 -223 -166 -26 -50 -30 -71 -30 -135 l0 -77 -27 14 c-43 22 -117 17
-175 -12 -52 -25 -134 -110 -146 -149 -3 -11 -16 -50 -30 -86 -14 -36 -28 -84
-32 -107 -6 -38 -9 -42 -36 -42 -36 0 -105 -69 -115 -115 -4 -16 -11 -33 -18
-37 -6 -4 -16 -22 -22 -40 -8 -26 -25 -41 -77 -69 -36 -21 -88 -58 -114 -84
-26 -26 -66 -59 -88 -75 -43 -29 -125 -73 -125 -66 0 12 75 134 95 156 25 26
55 89 55 114 0 28 -44 58 -194 132 -136 68 -153 74 -211 74 -47 0 -66 -4 -78
-18 -29 -32 -19 -55 53 -120 39 -35 82 -79 97 -99 l27 -35 -31 -27 c-17 -14
-42 -52 -56 -83 -14 -31 -49 -85 -77 -119 -28 -34 -71 -92 -96 -129 -40 -61
-44 -73 -44 -129 0 -60 1 -61 42 -91 23 -17 53 -33 67 -37 43 -11 140 12 279
66 185 72 349 103 428 82 33 -9 46 -21 79 -73 22 -35 72 -111 112 -170 40 -59
73 -111 73 -117 0 -5 -46 -14 -102 -20 -57 -6 -117 -13 -134 -15 -26 -4 -38 3
-70 35 -31 32 -45 39 -69 37 -38 -4 -70 -51 -85 -126 -12 -63 -25 -94 -72
-165 -39 -60 -51 -143 -23 -164 37 -26 61 -15 148 70 68 66 89 82 102 74 9 -5
28 -6 42 -2 14 3 31 1 39 -6 10 -8 43 -7 131 5 106 14 125 15 188 1 95 -20
132 -19 171 6 46 28 52 42 54 129 2 87 -43 276 -103 432 -21 51 -37 101 -37
110 0 9 -4 20 -10 23 -5 3 -10 23 -10 45 0 33 3 37 20 33 43 -11 65 4 84 59
15 41 36 70 96 128 43 41 87 91 99 112 22 36 94 108 110 108 4 0 36 27 70 59
l62 59 47 -20 c26 -12 64 -35 84 -53 50 -42 229 -135 261 -135 14 0 29 5 32
10 4 6 23 19 43 29 40 21 67 44 125 110 21 23 40 41 42 39 6 -6 95 -502 95
-529 0 -20 -8 -29 -39 -42 -59 -26 -75 -12 -99 82 -10 44 -38 63 -56 39 -16
-22 -30 -305 -17 -341 5 -13 21 -34 35 -45 l26 -20 -34 -59 c-128 -219 -154
-481 -65 -655 34 -67 113 -142 179 -172 300 -135 703 149 810 570 37 143 23
309 -35 430 -30 62 -109 138 -170 165 -52 23 -58 39 -15 39 37 0 46 19 85 180
16 63 30 117 32 120 4 5 64 -25 105 -52 28 -19 58 -24 58 -9 0 8 -107 81 -119
81 -4 0 -18 11 -31 25 -42 45 -55 34 -79 -61 -37 -149 -66 -196 -66 -110 0 55
-25 86 -71 86 -38 0 -41 4 -188 213 -53 76 -96 144 -95 150 3 27 -3 37 -31 52
-16 9 -30 20 -30 25 0 6 24 26 54 45 62 39 86 69 86 103 0 19 -4 23 -17 16
-10 -4 -43 -10 -73 -12 -30 -2 -64 -10 -75 -18 -21 -15 -45 -19 -45 -6 0 11
82 42 115 42 17 0 50 14 75 31 l45 30 15 -22 c68 -103 149 -171 245 -204 165
-57 363 -6 507 132 345 330 326 904 -36 1082 -57 28 -82 34 -150 37 -50 2
-103 -2 -140 -11z m48 -232 c-7 -54 -14 -102 -15 -108 -1 -5 -7 13 -15 40 -9
33 -12 38 -9 15 11 -76 17 -165 12 -160 -3 3 -28 64 -56 135 -27 72 -50 125
-51 118 0 -6 22 -69 50 -140 62 -159 67 -232 11 -185 -23 19 -135 278 -126
292 7 12 109 70 123 70 5 0 15 -21 20 -47 l11 -48 -5 52 c-5 44 -3 52 13 56
51 13 50 15 37 -90z m60 -20 c-19 -65 -40 -136 -46 -158 l-11 -40 -6 30 c-5
22 19 265 28 283 0 1 16 2 35 2 l34 0 -34 -117z m113 93 c3 -3 -20 -81 -51
-174 -64 -190 -96 -240 -111 -173 -4 20 8 78 40 188 25 87 47 163 50 170 3 9
13 9 36 3 17 -5 34 -11 36 -14z m48 -22 c14 -9 25 -21 25 -27 0 -15 -118 -223
-142 -250 -11 -13 -18 -16 -16 -7 12 41 102 300 105 300 2 0 15 -7 28 -16z
m67 -51 c10 -9 18 -20 18 -25 0 -10 -143 -148 -148 -144 -3 4 101 186 107 186
2 0 13 -7 23 -17z m-450 -126 c25 -61 44 -114 42 -116 -8 -8 -37 26 -91 106
-55 81 -56 84 -38 103 10 11 23 20 29 20 6 0 32 -51 58 -113z m512 21 c14 -35
26 -68 26 -73 0 -16 -259 -165 -286 -165 -26 0 -30 16 -11 41 7 8 70 53 140
99 70 45 126 85 123 87 -2 3 -37 -17 -78 -45 -121 -81 -158 -103 -158 -92 0
11 200 209 211 210 3 0 18 -28 33 -62z m-584 -14 c18 -25 30 -47 27 -50 -9 -9
-90 73 -83 84 12 20 24 14 56 -34z m-31 -21 c54 -42 121 -104 121 -115 0 -10
-35 7 -127 60 -64 37 -72 49 -51 70 16 16 16 16 57 -15z m41 -93 c110 -62 140
-90 96 -90 -14 0 -26 -5 -28 -10 -3 -9 -199 78 -217 96 -7 6 21 64 31 64 5 0
58 -27 118 -60z m610 -4 c0 -32 -2 -34 -82 -64 -87 -32 -148 -46 -148 -34 1 7
209 131 223 132 4 0 7 -15 7 -34z m-571 -110 c1 -5 -18 -6 -41 -2 -45 7 -178
46 -178 51 0 2 4 15 10 29 l9 26 100 -48 c55 -26 100 -51 100 -56z m579 47
c-2 -14 -15 -18 -58 -20 l-55 -3 45 19 c58 24 72 25 68 4z m-726 -35 l43 -13
-59 -3 c-32 -2 -61 -1 -63 2 -11 10 8 38 21 33 8 -3 34 -12 58 -19z m726 -25
c-3 -31 3 -30 -142 -18 -50 4 -75 10 -68 17 12 12 91 25 160 27 52 1 53 1 50
-26z m-598 -17 c-8 -8 -60 -24 -115 -35 -55 -10 -90 -20 -79 -20 12 -1 57 6
100 15 53 11 79 13 82 6 2 -6 11 -8 20 -6 10 4 7 -2 -8 -14 -27 -23 -137 -68
-187 -77 l-33 -7 0 70 c0 38 3 72 7 75 3 4 56 7 117 7 96 0 108 -2 96 -14z
m583 -26 c8 0 -1 -50 -12 -62 -18 -20 -281 43 -281 67 0 15 77 19 174 8 61 -6
114 -12 119 -13z m-103 -65 c47 -8 86 -15 88 -15 5 0 1 -26 -7 -39 -7 -11 -23
-9 -87 13 -44 15 -88 33 -98 41 -20 15 -20 15 0 15 10 0 57 -7 104 -15z m-111
-67 c38 -40 80 -87 94 -104 l26 -30 -23 -28 -22 -29 -85 103 c-72 86 -85 106
-81 131 2 16 8 29 13 29 5 0 40 -33 78 -72z m14 46 c18 -10 58 -37 90 -61 l57
-44 -17 -30 -17 -29 -34 33 c-59 56 -134 147 -122 147 6 0 25 -7 43 -16z
m-303 -19 c-7 -9 -15 -13 -18 -10 -3 2 1 11 8 20 7 9 15 13 18 10 3 -2 -1 -11
-8 -20z m-51 -29 c-8 -8 -41 -28 -74 -46 l-60 -32 40 37 c39 36 96 68 104 59
3 -2 -2 -11 -10 -18z m486 1 c38 -13 37 -11 29 -30 -5 -14 -12 -12 -50 14 -45
31 -57 47 -26 34 9 -4 31 -12 47 -18z m-271 -188 l7 -137 -32 -11 c-18 -6 -36
-11 -40 -11 -5 0 -9 72 -9 160 0 152 1 160 19 160 11 0 23 5 27 12 13 20 20
-28 28 -173z m110 90 c42 -50 76 -94 76 -98 0 -16 -41 -44 -49 -35 -35 37
-124 224 -107 224 2 0 38 -41 80 -91z m-53 -74 c15 -55 28 -93 28 -85 0 8 -6
39 -13 68 -11 41 -12 51 -2 43 18 -15 69 -111 59 -111 -5 0 -19 -9 -31 -20
-21 -20 -72 -44 -78 -37 -2 2 -7 66 -10 143 -6 163 3 163 47 -1z m-416 106
c-23 -21 -65 -37 -65 -23 0 8 57 40 75 41 5 1 1 -8 -10 -18z m275 -131 l0
-150 -36 0 -37 0 7 40 c14 92 14 119 -1 45 -8 -44 -17 -82 -19 -83 -7 -9 -64
11 -64 21 0 7 22 55 50 107 42 81 50 90 50 65 2 -36 5 -28 20 48 6 31 16 57
21 57 5 0 9 -64 9 -150z m-101 0 c-35 -66 -68 -120 -75 -120 -6 0 -22 9 -35
19 l-24 19 25 34 c82 114 118 157 140 170 14 8 26 11 28 6 2 -4 -25 -62 -59
-128z m-79 10 c-33 -44 -65 -80 -70 -80 -19 0 -21 22 -4 41 9 10 14 22 10 27
-4 4 -13 -1 -20 -11 -7 -9 -19 -17 -25 -17 -41 0 113 116 157 119 7 1 -15 -35
-48 -79z m-295 10 c0 -18 -84 -48 -135 -49 -34 0 -33 1 30 34 67 36 105 41
105 15z m-586 -130 c73 -10 110 -36 93 -65 -25 -45 22 -78 79 -55 26 11 31 10
44 -6 8 -11 14 -23 15 -29 0 -23 -85 -77 -165 -106 l-86 -30 -61 37 c-76 47
-102 72 -127 129 -5 11 -21 31 -35 44 -32 30 -33 41 -2 41 14 0 31 7 40 15 8
8 21 12 29 9 8 -3 21 2 28 10 16 18 58 19 148 6z m430 -311 c36 -52 106 -152
156 -222 l92 -129 -22 -55 c-13 -30 -27 -58 -31 -62 -5 -5 -36 -17 -69 -29
-33 -11 -67 -23 -77 -27 -20 -8 -38 48 -68 220 -12 66 -29 161 -40 210 -29
141 -35 198 -19 193 7 -2 42 -47 78 -99z m251 -543 c0 -8 -4 -17 -8 -20 -13
-8 -35 11 -28 23 10 16 36 14 36 -3z m110 -16 c0 -5 -2 -10 -4 -10 -3 0 -8 5
-11 10 -3 6 -1 10 4 10 6 0 11 -4 11 -10z m-240 -25 c0 -8 -11 -17 -25 -21
-37 -9 -42 2 -8 20 35 19 33 19 33 1z m-65 -43 c-8 -8 -25 10 -19 20 4 6 9 5
15 -3 4 -7 6 -15 4 -17z m-127 -84 c-11 -23 -16 -23 -39 5 -25 30 -24 37 6 37
14 0 25 6 26 13 1 6 4 1 8 -13 5 -14 4 -33 -1 -42z m262 -8 c0 -5 -5 -10 -11
-10 -5 0 -7 5 -4 10 3 6 8 10 11 10 2 0 4 -4 4 -10z m147 -14 c-3 -8 -9 -32
-13 -53 -4 -21 -13 -51 -21 -66 -8 -16 -16 -47 -18 -70 -6 -62 -28 -129 -47
-141 -33 -20 -32 6 5 79 40 82 43 104 3 28 -14 -27 -25 -43 -26 -38 -1 20 104
275 113 275 5 0 7 -6 4 -14z m-81 -68 c-20 -71 -21 -72 -27 -38 -6 30 -7 28
-8 -20 -1 -30 -8 -68 -15 -85 l-13 -30 -5 50 c-6 50 9 103 39 133 7 7 13 22
13 32 0 16 11 27 31 29 4 1 -3 -32 -15 -71z m173 58 c10 -11 9 -21 -4 -45 -8
-17 -13 -31 -11 -31 3 0 13 14 22 31 l16 32 25 -26 26 -25 -73 -87 c-40 -47
-70 -88 -68 -91 3 -2 33 32 69 76 35 44 69 80 75 80 12 0 24 -22 24 -44 0 -13
-151 -120 -166 -118 -5 0 -20 -9 -33 -21 l-23 -22 7 25 c4 14 25 57 47 95 23
39 43 73 45 78 2 4 2 7 -1 7 -3 0 -19 -24 -36 -52 -33 -59 -37 -55 -16 18 8
27 20 68 26 92 11 43 28 53 49 28z m-299 -12 c0 -8 -5 -12 -10 -9 -6 4 -8 11
-5 16 9 14 15 11 15 -7z m25 -63 c-23 -45 -26 -38 -7 17 9 27 18 40 20 30 2
-9 -4 -30 -13 -47z m-71 -38 c15 -42 13 -93 -3 -93 -7 0 -41 124 -41 149 0 26
28 -9 44 -56z m-42 -5 c16 -54 14 -74 -2 -48 -6 8 -10 12 -10 8 0 -4 9 -22 20
-40 11 -18 20 -42 20 -52 0 -18 -1 -18 -19 -2 -11 10 -20 25 -21 34 -3 64 -6
81 -12 88 -11 10 -10 64 1 64 5 0 15 -24 23 -52z m-83 -28 c-10 -7 -10 -12 -1
-23 7 -8 14 -27 17 -43 2 -16 7 -42 11 -59 l6 -30 -46 44 c-25 25 -48 43 -51
40 -2 -3 18 -27 45 -54 55 -54 71 -99 25 -69 -13 8 -29 13 -35 9 -17 -11 -91
6 -97 22 -11 29 13 33 51 7 20 -14 40 -24 42 -21 3 3 -12 15 -33 28 -21 12
-40 24 -42 26 -6 4 49 84 78 114 14 15 30 24 35 22 4 -3 2 -9 -5 -13z m595
-45 l7 -30 -125 -55 c-69 -30 -123 -56 -121 -59 3 -2 57 20 121 49 93 42 118
50 125 39 11 -17 11 -40 1 -55 -6 -9 -210 -94 -226 -94 -3 0 -13 17 -21 38
-16 37 -16 37 12 60 63 52 208 150 214 144 4 -4 10 -21 13 -37z m-375 -17 c0
-39 -3 -48 -9 -33 -12 28 -12 85 0 85 6 0 10 -24 9 -52z m-126 -61 c3 -8 1
-20 -4 -28 -5 -9 -9 -9 -9 -2 0 6 -3 18 -6 27 -3 9 -2 16 4 16 5 0 12 -6 15
-13z m87 -32 c0 -17 -2 -17 -10 -5 -5 8 -10 24 -10 35 0 17 2 17 10 5 5 -8 10
-24 10 -35z m-140 -78 c24 -16 21 -17 -88 -17 -119 0 -127 4 -102 50 9 17 13
17 88 1 43 -9 89 -25 102 -34z m558 16 l-3 -38 -70 -12 c-85 -14 -145 -16
-145 -4 0 8 191 89 213 90 5 1 7 -16 5 -36z m-513 -73 c15 -28 14 -30 -7 -35
-13 -2 -78 -6 -146 -7 -130 -3 -131 -3 -112 46 9 26 10 26 129 26 l120 0 16
-30z m505 13 c-1 -25 -19 -33 -63 -27 -52 7 -62 20 -19 27 49 7 82 7 82 0z
m-43 -39 c26 -7 29 -22 10 -48 -12 -17 -17 -16 -95 14 -45 17 -82 36 -82 42 0
11 114 5 167 -8z m-199 -16 c-5 -15 -23 -11 -26 6 -2 11 2 14 13 10 9 -4 14
-11 13 -16z m112 -29 c44 -17 80 -34 80 -39 0 -5 -5 -21 -12 -35 -9 -19 -16
-24 -32 -19 -36 11 -136 64 -136 72 0 14 12 52 16 52 3 0 41 -14 84 -31z
m-414 9 c-15 -8 -221 -66 -243 -68 -2 0 -3 15 -3 34 0 43 2 43 150 45 90 0
111 -2 96 -11z m73 -30 c12 -20 6 -28 -120 -148 -74 -70 -138 -125 -143 -123
-10 7 -37 68 -46 110 l-8 32 119 71 c65 40 123 70 129 68 6 -2 -41 -50 -105
-107 -63 -57 -113 -106 -110 -109 3 -3 34 21 68 54 80 78 189 174 196 174 4 0
12 -10 20 -22z m166 -38 c-8 -12 -45 -19 -45 -8 0 5 5 19 11 30 11 21 12 21
25 3 7 -10 11 -21 9 -25z m-319 23 c-4 -5 -42 -29 -84 -54 l-77 -47 -3 30 c-2
16 -2 32 1 34 4 4 146 43 161 43 5 1 6 -2 2 -6z m464 -38 c39 -19 70 -39 70
-43 0 -5 -6 -16 -13 -26 -12 -17 -18 -15 -77 30 -103 79 -94 96 20 39z m-39
-67 c21 -31 39 -61 39 -66 0 -11 -39 -47 -44 -41 -2 2 -20 41 -40 87 -54 124
-32 134 45 20z m-195 28 c-2 -12 -7 -39 -10 -61 l-6 -40 13 40 c12 38 13 39
20 15 4 -14 7 -40 7 -57 0 -18 4 -33 9 -33 4 0 7 33 5 73 l-4 72 19 -40 c11
-22 31 -70 45 -107 l25 -67 -26 -16 c-13 -9 -26 -15 -27 -13 -2 2 -8 23 -14
48 l-11 45 5 -43 c2 -24 5 -48 7 -55 1 -6 -6 -13 -15 -15 -15 -3 -18 4 -20 45
l-1 48 -6 -54 c-5 -49 -9 -55 -33 -62 -28 -7 -28 -7 -23 34 l5 42 -11 -41 c-8
-34 -15 -43 -37 -47 -27 -5 -103 0 -110 8 -6 5 86 234 104 260 14 19 14 19 15
0 1 -20 1 -20 6 0 15 59 21 65 48 53 19 -9 25 -17 21 -32z m-86 22 c0 -7 -10
-29 -22 -48 -12 -19 -23 -42 -24 -51 -2 -32 -77 -199 -89 -199 -6 0 -19 6 -29
13 -18 13 -18 13 108 176 7 10 7 13 0 8 -8 -4 -74 -89 -131 -166 -2 -3 -16 7
-31 22 l-27 28 120 114 c66 63 121 114 123 115 1 0 2 -6 2 -12z m233 -85 l37
-87 -24 -25 c-14 -14 -27 -23 -29 -20 -2 2 -21 48 -42 103 -30 80 -35 100 -24
107 31 20 45 7 82 -78z m87 35 c30 -22 38 -42 21 -52 -5 -3 -20 12 -35 34 -30
46 -27 49 14 18z"/>
<path d="M2627 278 c-15 -61 -26 -113 -24 -115 3 -2 17 46 32 107 15 61 26
113 23 115 -2 2 -16 -46 -31 -107z"/>
<path d="M2706 289 c-4 -23 -5 -44 -2 -46 2 -2 7 14 11 37 4 23 5 43 2 46 -2
3 -7 -14 -11 -37z"/>
</g>
</svg>
