<?xml version="1.0" standalone="no"?>
<!DOCTYPE svg PUBLIC "-//W3C//DTD SVG 20010904//EN"
 "http://www.w3.org/TR/2001/REC-SVG-20010904/DTD/svg10.dtd">
<svg version="1.0" xmlns="http://www.w3.org/2000/svg"
 width="398.000000pt" height="273.000000pt" viewBox="0 0 398.000000 273.000000"
 preserveAspectRatio="xMidYMid meet">

<g transform="translate(0.000000,273.000000) scale(0.100000,-0.100000)"
fill="#000000" stroke="none">
<path d="M1067 2378 c-125 -315 -478 -1205 -700 -1765 l-92 -233 -137 0 -138
0 0 -175 0 -175 705 0 705 0 0 175 0 175 -105 0 c-58 0 -105 2 -105 5 0 11
193 560 200 568 3 4 136 -207 295 -468 159 -261 292 -475 295 -475 4 0 136
214 295 475 159 261 292 471 296 467 7 -7 199 -554 199 -565 0 -4 -47 -7 -105
-7 l-105 0 0 -175 0 -175 705 0 705 0 0 175 0 175 -137 0 -138 0 -459 1159
c-252 638 -462 1165 -466 1171 -9 14 24 70 -438 -738 -338 -593 -351 -613
-365 -590 -8 12 -182 316 -387 673 -204 358 -375 654 -379 658 -4 4 -69 -146
-144 -335z"/>
</g>
</svg>
